{"accessors":[{"bufferView":2,"componentType":5126,"count":1558,"max":[1805.0001220703125,4800,1850],"min":[-1805.0001220703125,0,-650],"type":"VEC3"},{"bufferView":2,"byteOffset":18696,"componentType":5126,"count":1558,"max":[1,1,1],"min":[-1,-1,-1],"type":"VEC3"},{"bufferView":3,"componentType":5126,"count":1558,"max":[1,1,1,1],"min":[-1,-1,-1,1],"type":"VEC4"},{"bufferView":1,"componentType":5126,"count":1558,"max":[0.995681643486023,0.9618914127349854],"min":[0.004318388178944588,0.004318388178944588],"type":"VEC2"},{"bufferView":0,"componentType":5125,"count":3846,"max":[1557],"min":[0],"type":"SCALAR"}],"asset":{"extras":{"author":"Nicistarful (https://sketchfab.com/Nicistarful)","license":"CC-BY-NC-ND-4.0 (http://creativecommons.org/licenses/by-nc-nd/4.0/)","source":"https://sketchfab.com/3d-models/fbi-building-asset-05e4c19c9f5a44738fc6e4936d77733d","title":"FBI Building Asset"},"generator":"Sketchfab-4.81.0","version":"2.0"},"bufferViews":[{"buffer":0,"byteLength":15384,"byteOffset":0,"name":"floatBufferViews","target":34963},{"buffer":0,"byteLength":12464,"byteOffset":15384,"byteStride":8,"name":"floatBufferViews","target":34962},{"buffer":0,"byteLength":37392,"byteOffset":27848,"byteStride":12,"name":"floatBufferViews","target":34962},{"buffer":0,"byteLength":24928,"byteOffset":65240,"byteStride":16,"name":"floatBufferViews","target":34962}],"buffers":[{"byteLength":90168,"uri":"data:application/octet-stream;base64,"}],"extensionsRequired":["KHR_materials_pbrSpecularGlossiness"],"extensionsUsed":["KHR_materials_pbrSpecularGlossiness"],"images":[{"uri":"data:application/octet-stream;base64,"},{"uri":"data:application/octet-stream;base64,"},{"uri":"data:application/octet-stream;base64,"}],"materials":[{"doubleSided":false,"extensions":{"KHR_materials_pbrSpecularGlossiness":{"diffuseFactor":[1,1,1,1],"diffuseTexture":{"index":2,"texCoord":0},"glossinessFactor":1,"specularFactor":[1,1,1],"specularGlossinessTexture":{"index":1,"texCoord":0}}},"name":"Scene_-_Root","normalTexture":{"index":0,"scale":1,"texCoord":0}}],"meshes":[{"name":"Plane.001__0","primitives":[{"attributes":{"NORMAL":1,"POSITION":0,"TANGENT":2,"TEXCOORD_0":3},"indices":4,"material":0,"mode":4}]}],"nodes":[{"children":[1],"name":"RootNode (gltf orientation matrix)","rotation":[-0.7071067811865475,0,0,0.7071067811865476]},{"children":[2],"name":"RootNode (model correction matrix)"},{"children":[3],"matrix":[1,0,0,0,0,0,1,0,0,-1,0,0,0,0,0,1],"name":"FBI Building.fbx"},{"children":[4],"name":"RootNode"},{"children":[5],"name":"Plane.001"},{"mesh":0,"name":"Plane.001__0"}],"samplers":[{"magFilter":9729,"minFilter":9987,"wrapS":10497,"wrapT":10497}],"scene":0,"scenes":[{"name":"OSG_Scene","nodes":[0]}],"textures":[{"sampler":0,"source":0},{"sampler":0,"source":1},{"sampler":0,"source":2}]}